# xmcd
#
# Track frame offsets: 
#        150
#        26501
#        41005
#        65901
#        90262
#        114840
#        128506
#        145275
#        168357
#        178603
#        197525
#        232413
#        246337
#        270453
#        292791
#        314108
#        332545
#
# Disc length: 4747 seconds
#
# Revision: 6
# Processed by: cddbd v1.5.2PL0 Copyright (c) Steve Scherf et al.
# Submitted via: ExactAudioCopy v1.0b3
#
DISCID=f1128911
DTITLE=Fabrizio De André - In Direzione Ostinata e Contraria 2 - Cd 3
DYEAR=2006
DGENRE=Cantautori Italiani
TTITLE0=Quello Che Non Ho
TTITLE1=Canto Del Servo Pastore
TTITLE2=Franziska
TTITLE3=Ave Maria
TTITLE4=Sinàn Capudàn Pascià
TTITLE5=D'ä Mê Riva
TTITLE6='Â Pittima
TTITLE7=Jamin-à
TTITLE8=Le Nuvole
TTITLE9=Ottocento
TTITLE10=Monti Di Mola
TTITLE11=La Nova Gelosia
TTITLE12=Mégu Megún
TTITLE13=Dolcenera
TTITLE14=Le Acciughe Fanno Il Pallone
TTITLE15=Â Cúmba
TTITLE16=Disamistade
EXTD=YEAR: 2005
EXTT0=
EXTT1=
EXTT2=
EXTT3=
EXTT4=
EXTT5=
EXTT6=
EXTT7=
EXTT8=
EXTT9=
EXTT10=
EXTT11=
EXTT12=
EXTT13=
EXTT14=
EXTT15=
EXTT16=
PLAYORDER=
